<mxfile host="app.diagrams.net" agent="Mozilla/5.0 (X11; Ubuntu; Linux x86_64; rv:129.0) Gecko/20100101 Firefox/129.0" version="26.0.7">
  <diagram name="Page-1" id="vxpSZHFFIUbmBh8E7Ene">
    <mxGraphModel dx="760" dy="439" grid="1" gridSize="10" guides="1" tooltips="1" connect="1" arrows="1" fold="1" page="1" pageScale="1" pageWidth="850" pageHeight="1100" math="0" shadow="0">
      <root>
        <mxCell id="0" />
        <mxCell id="1" parent="0" />
        <mxCell id="Esa1JXTQvtTkdnEZZCk0-4" value="&lt;div&gt;AR&amp;nbsp;&lt;/div&gt;&lt;div&gt;Transformer&lt;/div&gt;" style="rounded=1;whiteSpace=wrap;html=1;fillColor=#fff2cc;strokeColor=#d6b656;" parent="1" vertex="1">
          <mxGeometry x="20" y="200" width="520" height="90" as="geometry" />
        </mxCell>
        <mxCell id="Esa1JXTQvtTkdnEZZCk0-34" style="edgeStyle=orthogonalEdgeStyle;rounded=0;orthogonalLoop=1;jettySize=auto;html=1;exitX=0.5;exitY=0;exitDx=0;exitDy=0;" parent="1" source="Esa1JXTQvtTkdnEZZCk0-6" edge="1">
          <mxGeometry relative="1" as="geometry">
            <mxPoint x="123" y="430" as="targetPoint" />
          </mxGeometry>
        </mxCell>
        <mxCell id="Esa1JXTQvtTkdnEZZCk0-6" value="" style="rounded=1;whiteSpace=wrap;html=1;fillColor=#d5e8d4;strokeColor=#82b366;" parent="1" vertex="1">
          <mxGeometry x="113" y="450" width="20" height="30" as="geometry" />
        </mxCell>
        <mxCell id="Esa1JXTQvtTkdnEZZCk0-35" style="edgeStyle=orthogonalEdgeStyle;rounded=0;orthogonalLoop=1;jettySize=auto;html=1;exitX=0.5;exitY=0;exitDx=0;exitDy=0;" parent="1" source="Esa1JXTQvtTkdnEZZCk0-23" edge="1">
          <mxGeometry relative="1" as="geometry">
            <mxPoint x="153" y="430" as="targetPoint" />
          </mxGeometry>
        </mxCell>
        <mxCell id="Esa1JXTQvtTkdnEZZCk0-23" value="" style="rounded=1;whiteSpace=wrap;html=1;fillColor=#d5e8d4;strokeColor=#82b366;" parent="1" vertex="1">
          <mxGeometry x="143" y="450" width="20" height="30" as="geometry" />
        </mxCell>
        <mxCell id="Esa1JXTQvtTkdnEZZCk0-36" style="edgeStyle=orthogonalEdgeStyle;rounded=0;orthogonalLoop=1;jettySize=auto;html=1;exitX=0.5;exitY=0;exitDx=0;exitDy=0;" parent="1" source="Esa1JXTQvtTkdnEZZCk0-25" edge="1">
          <mxGeometry relative="1" as="geometry">
            <mxPoint x="213" y="430" as="targetPoint" />
          </mxGeometry>
        </mxCell>
        <mxCell id="Esa1JXTQvtTkdnEZZCk0-25" value="" style="rounded=1;whiteSpace=wrap;html=1;fillColor=#d5e8d4;strokeColor=#82b366;" parent="1" vertex="1">
          <mxGeometry x="203" y="450" width="20" height="30" as="geometry" />
        </mxCell>
        <mxCell id="Esa1JXTQvtTkdnEZZCk0-30" value="" style="endArrow=none;dashed=1;html=1;dashPattern=1 3;strokeWidth=2;rounded=0;" parent="1" edge="1">
          <mxGeometry width="50" height="50" relative="1" as="geometry">
            <mxPoint x="173" y="464.5" as="sourcePoint" />
            <mxPoint x="193" y="464.5" as="targetPoint" />
          </mxGeometry>
        </mxCell>
        <mxCell id="Esa1JXTQvtTkdnEZZCk0-31" value="" style="shape=curlyBracket;whiteSpace=wrap;html=1;rounded=1;flipH=1;labelPosition=right;verticalLabelPosition=middle;align=left;verticalAlign=middle;rotation=90;" parent="1" vertex="1">
          <mxGeometry x="158" y="435" width="20" height="120" as="geometry" />
        </mxCell>
        <mxCell id="Esa1JXTQvtTkdnEZZCk0-32" value="Tokenized term" style="text;html=1;align=center;verticalAlign=middle;whiteSpace=wrap;rounded=0;" parent="1" vertex="1">
          <mxGeometry x="138" y="510" width="60" height="30" as="geometry" />
        </mxCell>
        <mxCell id="Esa1JXTQvtTkdnEZZCk0-47" value="" style="rounded=1;whiteSpace=wrap;html=1;fillColor=#d5e8d4;strokeColor=#82b366;" parent="1" vertex="1">
          <mxGeometry x="140" y="320" width="20" height="30" as="geometry" />
        </mxCell>
        <mxCell id="Esa1JXTQvtTkdnEZZCk0-51" value="" style="rounded=1;whiteSpace=wrap;html=1;fillColor=#d5e8d4;strokeColor=#82b366;" parent="1" vertex="1">
          <mxGeometry x="175" y="320" width="20" height="30" as="geometry" />
        </mxCell>
        <mxCell id="Esa1JXTQvtTkdnEZZCk0-52" value="" style="endArrow=none;dashed=1;html=1;dashPattern=1 3;strokeWidth=1;rounded=0;" parent="1" edge="1">
          <mxGeometry width="50" height="50" relative="1" as="geometry">
            <mxPoint x="163" y="335.88" as="sourcePoint" />
            <mxPoint x="173" y="335.88" as="targetPoint" />
          </mxGeometry>
        </mxCell>
        <mxCell id="Esa1JXTQvtTkdnEZZCk0-53" style="edgeStyle=orthogonalEdgeStyle;rounded=0;orthogonalLoop=1;jettySize=auto;html=1;exitX=0.5;exitY=0;exitDx=0;exitDy=0;" parent="1" edge="1">
          <mxGeometry relative="1" as="geometry">
            <mxPoint x="149.82" y="350" as="targetPoint" />
            <mxPoint x="149.82" y="370" as="sourcePoint" />
            <Array as="points">
              <mxPoint x="149.82" y="360" />
              <mxPoint x="149.82" y="360" />
            </Array>
          </mxGeometry>
        </mxCell>
        <mxCell id="Esa1JXTQvtTkdnEZZCk0-55" style="edgeStyle=orthogonalEdgeStyle;rounded=0;orthogonalLoop=1;jettySize=auto;html=1;exitX=0.5;exitY=0;exitDx=0;exitDy=0;" parent="1" edge="1">
          <mxGeometry relative="1" as="geometry">
            <mxPoint x="184.82" y="350" as="targetPoint" />
            <mxPoint x="184.82" y="370" as="sourcePoint" />
          </mxGeometry>
        </mxCell>
        <mxCell id="Esa1JXTQvtTkdnEZZCk0-57" style="edgeStyle=orthogonalEdgeStyle;rounded=0;orthogonalLoop=1;jettySize=auto;html=1;exitX=0.5;exitY=0;exitDx=0;exitDy=0;" parent="1" source="Esa1JXTQvtTkdnEZZCk0-56" edge="1">
          <mxGeometry relative="1" as="geometry">
            <mxPoint x="70" y="300" as="targetPoint" />
          </mxGeometry>
        </mxCell>
        <mxCell id="Esa1JXTQvtTkdnEZZCk0-56" value="" style="rounded=1;whiteSpace=wrap;html=1;fillColor=#dae8fc;strokeColor=#6c8ebf;" parent="1" vertex="1">
          <mxGeometry x="60" y="320" width="20" height="30" as="geometry" />
        </mxCell>
        <mxCell id="Esa1JXTQvtTkdnEZZCk0-58" style="edgeStyle=orthogonalEdgeStyle;rounded=0;orthogonalLoop=1;jettySize=auto;html=1;exitX=0.5;exitY=0;exitDx=0;exitDy=0;" parent="1" source="Esa1JXTQvtTkdnEZZCk0-59" edge="1">
          <mxGeometry relative="1" as="geometry">
            <mxPoint x="260" y="300" as="targetPoint" />
          </mxGeometry>
        </mxCell>
        <mxCell id="Esa1JXTQvtTkdnEZZCk0-59" value="" style="rounded=1;whiteSpace=wrap;html=1;fillColor=#dae8fc;strokeColor=#6c8ebf;" parent="1" vertex="1">
          <mxGeometry x="250" y="320" width="20" height="30" as="geometry" />
        </mxCell>
        <mxCell id="Esa1JXTQvtTkdnEZZCk0-61" value="BOS" style="text;html=1;align=center;verticalAlign=middle;whiteSpace=wrap;rounded=0;" parent="1" vertex="1">
          <mxGeometry x="40" y="350" width="60" height="30" as="geometry" />
        </mxCell>
        <mxCell id="Esa1JXTQvtTkdnEZZCk0-62" value="LANG TOKEN" style="text;html=1;align=center;verticalAlign=middle;whiteSpace=wrap;rounded=0;" parent="1" vertex="1">
          <mxGeometry x="230" y="355" width="60" height="30" as="geometry" />
        </mxCell>
        <mxCell id="Esa1JXTQvtTkdnEZZCk0-63" style="edgeStyle=orthogonalEdgeStyle;rounded=0;orthogonalLoop=1;jettySize=auto;html=1;exitX=0.5;exitY=0;exitDx=0;exitDy=0;" parent="1" edge="1">
          <mxGeometry relative="1" as="geometry">
            <mxPoint x="350" y="179" as="targetPoint" />
            <mxPoint x="350" y="199" as="sourcePoint" />
          </mxGeometry>
        </mxCell>
        <mxCell id="Esa1JXTQvtTkdnEZZCk0-64" value="" style="rounded=1;whiteSpace=wrap;html=1;fillColor=#dae8fc;strokeColor=#6c8ebf;" parent="1" vertex="1">
          <mxGeometry x="340" y="140" width="20" height="30" as="geometry" />
        </mxCell>
        <mxCell id="Esa1JXTQvtTkdnEZZCk0-65" style="edgeStyle=orthogonalEdgeStyle;rounded=0;orthogonalLoop=1;jettySize=auto;html=1;exitX=0.5;exitY=0;exitDx=0;exitDy=0;" parent="1" edge="1">
          <mxGeometry relative="1" as="geometry">
            <mxPoint x="380" y="179" as="targetPoint" />
            <mxPoint x="380" y="199" as="sourcePoint" />
          </mxGeometry>
        </mxCell>
        <mxCell id="Esa1JXTQvtTkdnEZZCk0-66" value="" style="rounded=1;whiteSpace=wrap;html=1;fillColor=#dae8fc;strokeColor=#6c8ebf;" parent="1" vertex="1">
          <mxGeometry x="370" y="140" width="20" height="30" as="geometry" />
        </mxCell>
        <mxCell id="Esa1JXTQvtTkdnEZZCk0-67" style="edgeStyle=orthogonalEdgeStyle;rounded=0;orthogonalLoop=1;jettySize=auto;html=1;exitX=0.5;exitY=0;exitDx=0;exitDy=0;" parent="1" edge="1">
          <mxGeometry relative="1" as="geometry">
            <mxPoint x="440" y="179" as="targetPoint" />
            <mxPoint x="440" y="199" as="sourcePoint" />
          </mxGeometry>
        </mxCell>
        <mxCell id="Esa1JXTQvtTkdnEZZCk0-68" value="" style="rounded=1;whiteSpace=wrap;html=1;fillColor=#dae8fc;strokeColor=#6c8ebf;" parent="1" vertex="1">
          <mxGeometry x="430" y="140" width="20" height="30" as="geometry" />
        </mxCell>
        <mxCell id="Esa1JXTQvtTkdnEZZCk0-69" value="" style="endArrow=none;dashed=1;html=1;dashPattern=1 3;strokeWidth=2;rounded=0;" parent="1" edge="1">
          <mxGeometry width="50" height="50" relative="1" as="geometry">
            <mxPoint x="400" y="154.5" as="sourcePoint" />
            <mxPoint x="420" y="154.5" as="targetPoint" />
          </mxGeometry>
        </mxCell>
        <mxCell id="Esa1JXTQvtTkdnEZZCk0-77" value="" style="shape=curlyBracket;whiteSpace=wrap;html=1;rounded=1;flipH=1;labelPosition=right;verticalLabelPosition=middle;align=left;verticalAlign=middle;rotation=-90;" parent="1" vertex="1">
          <mxGeometry x="386" y="70" width="20" height="120" as="geometry" />
        </mxCell>
        <mxCell id="Esa1JXTQvtTkdnEZZCk0-78" value="Sequence of tactics" style="text;html=1;align=center;verticalAlign=middle;whiteSpace=wrap;rounded=0;" parent="1" vertex="1">
          <mxGeometry x="366" y="80" width="60" height="30" as="geometry" />
        </mxCell>
        <mxCell id="Esa1JXTQvtTkdnEZZCk0-82" style="edgeStyle=orthogonalEdgeStyle;rounded=0;orthogonalLoop=1;jettySize=auto;html=1;exitX=0.5;exitY=0;exitDx=0;exitDy=0;" parent="1" source="Esa1JXTQvtTkdnEZZCk0-83" edge="1">
          <mxGeometry relative="1" as="geometry">
            <mxPoint x="310" y="300" as="targetPoint" />
          </mxGeometry>
        </mxCell>
        <mxCell id="Esa1JXTQvtTkdnEZZCk0-83" value="" style="rounded=1;whiteSpace=wrap;html=1;fillColor=#dae8fc;strokeColor=#6c8ebf;" parent="1" vertex="1">
          <mxGeometry x="300" y="320" width="20" height="30" as="geometry" />
        </mxCell>
        <mxCell id="Esa1JXTQvtTkdnEZZCk0-84" value="INSTR TOKEN" style="text;html=1;align=center;verticalAlign=middle;whiteSpace=wrap;rounded=0;" parent="1" vertex="1">
          <mxGeometry x="280" y="355" width="60" height="30" as="geometry" />
        </mxCell>
        <mxCell id="Vvs1ay22zPMx4Eb5DE_X-1" value="&lt;div&gt;Perceiver&lt;/div&gt;&lt;div&gt;resampler&lt;br&gt;&lt;/div&gt;" style="shape=trapezoid;perimeter=trapezoidPerimeter;whiteSpace=wrap;html=1;fixedSize=1;fillColor=#d5e8d4;strokeColor=#82b366;size=25;" vertex="1" parent="1">
          <mxGeometry x="115.5" y="370" width="105" height="55" as="geometry" />
        </mxCell>
        <mxCell id="Vvs1ay22zPMx4Eb5DE_X-7" style="edgeStyle=orthogonalEdgeStyle;rounded=0;orthogonalLoop=1;jettySize=auto;html=1;exitX=0.5;exitY=0;exitDx=0;exitDy=0;" edge="1" parent="1">
          <mxGeometry relative="1" as="geometry">
            <mxPoint x="149.82" y="300" as="targetPoint" />
            <mxPoint x="149.82" y="320" as="sourcePoint" />
            <Array as="points">
              <mxPoint x="149.82" y="310" />
              <mxPoint x="149.82" y="310" />
            </Array>
          </mxGeometry>
        </mxCell>
        <mxCell id="Vvs1ay22zPMx4Eb5DE_X-8" style="edgeStyle=orthogonalEdgeStyle;rounded=0;orthogonalLoop=1;jettySize=auto;html=1;exitX=0.5;exitY=0;exitDx=0;exitDy=0;" edge="1" parent="1">
          <mxGeometry relative="1" as="geometry">
            <mxPoint x="184.8" y="300" as="targetPoint" />
            <mxPoint x="184.8" y="320" as="sourcePoint" />
            <Array as="points">
              <mxPoint x="184.8" y="300" />
              <mxPoint x="184.8" y="300" />
            </Array>
          </mxGeometry>
        </mxCell>
      </root>
    </mxGraphModel>
  </diagram>
</mxfile>
